<?xml version="1.0" encoding="UTF-8" standalone="no"?>
<!DOCTYPE svg PUBLIC "-//W3C//DTD SVG 1.1//EN" "http://www.w3.org/Graphics/SVG/1.1/DTD/svg11.dtd">
<svg version="1.1" xmlns="http://www.w3.org/2000/svg" xmlns:xlink="http://www.w3.org/1999/xlink" preserveAspectRatio="xMidYMid meet" viewBox="0 0 640 640" width="32" height="32"><defs><path d="M463.99 150C463.99 227.27 399.47 290 320 290C240.53 290 176.01 227.27 176.01 150C176.01 72.73 240.53 10 320 10C399.47 10 463.99 72.73 463.99 150Z" id="a5cLRyI0Mi"></path><path d="M298.37 490C298.37 567.27 233.76 630 154.19 630C74.61 630 10 567.27 10 490C10 412.73 74.61 350 154.19 350C233.76 350 298.37 412.73 298.37 490Z" id="a2z7pYdyVR"></path><path d="M632.33 490C632.33 567.27 569.07 630 491.16 630C413.25 630 350 567.27 350 490C350 412.73 413.25 350 491.16 350C569.07 350 632.33 412.73 632.33 490Z" id="a1ToV2hJYS"></path></defs><g><g><g><use xlink:href="#a5cLRyI0Mi" opacity="1" fill="#ff0303" fill-opacity="1"></use></g><g><use xlink:href="#a2z7pYdyVR" opacity="1" fill="#03fb31" fill-opacity="1"></use></g><g><use xlink:href="#a1ToV2hJYS" opacity="1" fill="#040af9" fill-opacity="1"></use></g></g></g></svg>