<?xml version="1.0" encoding="UTF-8" standalone="no"?>
<!DOCTYPE svg PUBLIC "-//W3C//DTD SVG 1.1//EN" "http://www.w3.org/Graphics/SVG/1.1/DTD/svg11.dtd">
<svg version="1.1" xmlns="http://www.w3.org/2000/svg" xmlns:xlink="http://www.w3.org/1999/xlink" preserveAspectRatio="xMidYMid meet" viewBox="0 0 640 640" width="32" height="32"><defs><path d="M367.75 10.06L368.34 10.14L368.92 10.25L369.48 10.39L370.02 10.56L370.55 10.76L371.06 10.99L371.56 11.24L372.04 11.52L372.51 11.83L372.96 12.16L373.41 12.52L373.83 12.9L374.25 13.31L374.65 13.74L375.04 14.19L375.42 14.67L375.8 15.16L376.16 15.68L376.51 16.21L376.85 16.77L377.18 17.34L377.51 17.94L377.83 18.55L378.14 19.17L378.44 19.82L378.74 20.47L379.03 21.15L379.32 21.84L379.6 22.54L379.88 23.25L380.15 23.98L380.42 24.72L380.69 25.47L380.95 26.23L381.22 27.01L381.48 27.79L381.74 28.58L382 29.38L395.4 79.66L399.61 80.97L408.91 84.27L418.04 87.92L426.99 91.91L435.75 96.24L436.47 96.63L481.66 70.47L482.41 70.09L483.15 69.72L483.89 69.35L484.62 68.99L485.35 68.64L486.07 68.3L486.78 67.97L487.49 67.65L488.19 67.34L488.89 67.04L489.58 66.75L490.26 66.48L490.94 66.23L491.61 65.99L492.27 65.77L492.93 65.56L493.58 65.37L494.22 65.2L494.85 65.05L495.48 64.92L496.1 64.81L496.71 64.72L497.32 64.65L497.91 64.61L498.5 64.59L499.08 64.6L499.66 64.63L500.22 64.69L500.78 64.78L501.33 64.89L501.87 65.03L502.4 65.2L502.92 65.41L503.43 65.64L503.94 65.9L504.43 66.2L504.92 66.53L505.4 66.9L505.86 67.3L506.32 67.73L572.08 133.49L572.52 133.95L572.92 134.42L573.29 134.91L573.63 135.4L573.94 135.91L574.22 136.42L574.46 136.95L574.68 137.49L574.87 138.03L575.02 138.59L575.15 139.15L575.26 139.73L575.33 140.31L575.38 140.9L575.41 141.5L575.4 142.1L575.38 142.72L575.33 143.34L575.26 143.96L575.16 144.6L575.04 145.24L574.9 145.88L574.74 146.53L574.56 147.19L574.36 147.85L574.14 148.52L573.9 149.19L573.64 149.86L573.36 150.54L573.07 151.22L572.76 151.9L572.44 152.59L572.1 153.28L571.75 153.97L571.38 154.67L570.99 155.36L570.6 156.06L570.19 156.76L569.77 157.45L569.34 158.15L543.22 203.27L543.76 204.25L548.09 213.01L552.08 221.96L555.73 231.09L559.03 240.39L560.34 244.6L610.62 258L611.42 258.19L612.21 258.39L612.99 258.59L613.77 258.81L614.53 259.03L615.28 259.26L616.02 259.5L616.75 259.74L617.46 260L618.16 260.27L618.85 260.54L619.53 260.82L620.18 261.12L620.83 261.42L621.45 261.74L622.06 262.06L622.66 262.4L623.23 262.75L623.79 263.1L624.32 263.47L624.84 263.85L625.33 264.24L625.81 264.65L626.26 265.06L626.69 265.49L627.1 265.93L627.48 266.38L627.84 266.85L628.17 267.33L628.48 267.82L628.76 268.32L629.01 268.84L629.24 269.37L629.44 269.92L629.61 270.48L629.75 271.05L629.86 271.64L629.94 272.25L629.98 272.87L630 273.5L630 366.5L629.98 367.13L629.94 367.75L629.86 368.34L629.75 368.92L629.61 369.48L629.44 370.02L629.24 370.55L629.01 371.06L628.76 371.56L628.48 372.04L628.17 372.51L627.84 372.96L627.48 373.41L627.1 373.83L626.69 374.25L626.26 374.65L625.81 375.04L625.33 375.42L624.84 375.8L624.32 376.16L623.79 376.51L623.23 376.85L622.66 377.18L622.06 377.51L621.45 377.83L620.83 378.14L620.18 378.44L619.53 378.74L618.85 379.03L618.16 379.32L617.46 379.6L616.75 379.88L616.02 380.15L615.28 380.42L614.53 380.69L613.77 380.95L612.99 381.22L612.21 381.48L611.42 381.74L610.62 382L560.34 395.4L559.03 399.61L555.73 408.91L552.08 418.04L548.09 426.99L543.76 435.75L543.27 436.63L569.34 481.66L569.77 482.36L570.19 483.06L570.6 483.76L570.99 484.45L571.38 485.15L571.75 485.84L572.1 486.53L572.44 487.22L572.76 487.91L573.07 488.59L573.36 489.28L573.64 489.95L573.9 490.63L574.14 491.3L574.36 491.96L574.56 492.62L574.74 493.28L574.9 493.93L575.04 494.58L575.16 495.22L575.26 495.85L575.33 496.48L575.38 497.1L575.4 497.71L575.41 498.32L575.38 498.92L575.33 499.51L575.26 500.09L575.15 500.66L575.02 501.23L574.87 501.78L574.68 502.33L574.46 502.87L574.22 503.39L573.94 503.91L573.63 504.41L573.29 504.91L572.92 505.39L572.52 505.86L572.08 506.32L506.32 572.08L505.86 572.52L505.4 572.92L504.92 573.28L504.43 573.61L503.94 573.91L503.43 574.18L502.92 574.41L502.4 574.61L501.87 574.78L501.33 574.93L500.78 575.04L500.22 575.12L499.66 575.18L499.08 575.21L498.5 575.22L497.91 575.2L497.32 575.16L496.71 575.09L496.1 575.01L495.48 574.9L494.85 574.77L494.22 574.62L493.58 574.44L492.93 574.26L492.27 574.05L491.61 573.83L490.94 573.59L490.26 573.33L489.58 573.06L488.89 572.78L488.19 572.48L487.49 572.17L486.78 571.85L486.07 571.52L485.35 571.18L484.62 570.82L483.89 570.46L483.15 570.1L482.41 569.72L481.66 569.34L436.63 543.27L435.75 543.76L426.99 548.09L418.04 552.08L408.91 555.73L399.61 559.03L395.4 560.34L382 610.62L381.74 611.42L381.48 612.21L381.22 612.99L380.95 613.77L380.69 614.53L380.42 615.28L380.15 616.02L379.88 616.75L379.6 617.46L379.32 618.16L379.03 618.85L378.74 619.53L378.44 620.18L378.14 620.83L377.83 621.45L377.51 622.06L377.18 622.66L376.85 623.23L376.51 623.79L376.16 624.32L375.8 624.84L375.42 625.33L375.04 625.81L374.65 626.26L374.25 626.69L373.83 627.1L373.41 627.48L372.96 627.84L372.51 628.17L372.04 628.48L371.56 628.76L371.06 629.01L370.55 629.24L370.02 629.44L369.48 629.61L368.92 629.75L368.34 629.86L367.75 629.94L367.13 629.98L366.5 630L273.5 630L272.87 629.98L272.25 629.94L271.64 629.86L271.05 629.75L270.48 629.61L269.92 629.44L269.37 629.24L268.84 629.01L268.32 628.76L267.82 628.48L267.33 628.17L266.85 627.84L266.38 627.48L265.93 627.1L265.49 626.69L265.06 626.26L264.65 625.81L264.24 625.33L263.85 624.84L263.47 624.32L263.1 623.79L262.75 623.23L262.4 622.66L262.06 622.06L261.74 621.45L261.42 620.83L261.12 620.18L260.82 619.53L260.54 618.85L260.27 618.16L260 617.46L259.74 616.75L259.5 616.02L259.26 615.28L259.03 614.53L258.81 613.77L258.59 612.99L258.39 612.21L258.19 611.42L258 610.62L244.6 560.34L240.39 559.03L231.09 555.73L221.96 552.08L213.01 548.09L204.25 543.76L203.19 543.19L158.34 569.16L157.64 569.59L156.94 570.01L156.24 570.42L155.55 570.81L154.85 571.19L154.16 571.56L153.47 571.91L152.78 572.25L152.09 572.58L151.41 572.89L150.72 573.18L150.05 573.45L149.37 573.71L148.7 573.95L148.04 574.17L147.38 574.37L146.72 574.56L146.07 574.72L145.42 574.86L144.78 574.97L144.15 575.07L143.52 575.14L142.9 575.19L142.29 575.22L141.68 575.22L141.08 575.2L140.49 575.15L139.91 575.07L139.34 574.97L138.77 574.84L138.22 574.68L137.67 574.49L137.13 574.28L136.61 574.03L136.09 573.76L135.59 573.45L135.09 573.11L134.61 572.74L134.14 572.34L133.68 571.9L67.92 506.14L67.48 505.68L67.08 505.21L66.72 504.73L66.39 504.25L66.09 503.75L65.82 503.25L65.59 502.73L65.39 502.21L65.22 501.68L65.07 501.14L64.96 500.59L64.88 500.04L64.82 499.47L64.79 498.9L64.78 498.32L64.8 497.73L64.84 497.13L64.91 496.53L64.99 495.92L65.1 495.3L65.23 494.67L65.38 494.03L65.56 493.39L65.74 492.74L65.95 492.09L66.17 491.42L66.41 490.75L66.67 490.08L66.94 489.39L67.22 488.71L67.52 488.01L67.83 487.31L68.15 486.6L68.48 485.88L68.82 485.16L69.18 484.44L69.54 483.71L69.9 482.97L70.28 482.23L70.66 481.48L96.68 436.55L96.24 435.75L91.91 426.99L87.92 418.04L84.27 408.91L80.97 399.61L79.66 395.4L29.38 382L28.58 381.74L27.79 381.48L27.01 381.22L26.23 380.95L25.47 380.69L24.72 380.42L23.98 380.15L23.25 379.88L22.54 379.6L21.84 379.32L21.15 379.03L20.47 378.74L19.82 378.44L19.17 378.14L18.55 377.83L17.94 377.51L17.34 377.18L16.77 376.85L16.21 376.51L15.68 376.16L15.16 375.8L14.67 375.42L14.19 375.04L13.74 374.65L13.31 374.25L12.9 373.83L12.52 373.41L12.16 372.96L11.83 372.51L11.52 372.04L11.24 371.56L10.99 371.06L10.76 370.55L10.56 370.02L10.39 369.48L10.25 368.92L10.14 368.34L10.06 367.75L10.02 367.13L10 366.5L10 273.5L10.02 272.87L10.06 272.25L10.14 271.64L10.25 271.05L10.39 270.48L10.56 269.92L10.76 269.37L10.99 268.84L11.24 268.32L11.52 267.82L11.83 267.33L12.16 266.85L12.52 266.38L12.9 265.93L13.31 265.49L13.74 265.06L14.19 264.65L14.67 264.24L15.16 263.85L15.68 263.47L16.21 263.1L16.77 262.75L17.34 262.4L17.94 262.06L18.55 261.74L19.17 261.42L19.82 261.12L20.47 260.82L21.15 260.54L21.84 260.27L22.54 260L23.25 259.74L23.98 259.5L24.72 259.26L25.47 259.03L26.23 258.81L27.01 258.59L27.79 258.39L28.58 258.19L29.38 258L79.66 244.6L80.97 240.39L84.27 231.09L87.92 221.96L91.91 213.01L96.24 204.25L96.73 203.37L70.66 158.34L70.28 157.59L69.9 156.85L69.54 156.11L69.18 155.38L68.82 154.65L68.48 153.93L68.15 153.22L67.83 152.51L67.52 151.81L67.22 151.11L66.94 150.42L66.67 149.74L66.41 149.06L66.17 148.39L65.95 147.73L65.74 147.07L65.56 146.42L65.38 145.78L65.23 145.15L65.1 144.52L64.99 143.9L64.91 143.29L64.84 142.68L64.8 142.09L64.78 141.5L64.79 140.92L64.82 140.34L64.88 139.78L64.96 139.22L65.07 138.67L65.22 138.13L65.39 137.6L65.59 137.08L65.82 136.57L66.09 136.06L66.39 135.57L66.72 135.08L67.08 134.6L67.48 134.14L67.92 133.68L133.68 67.92L134.14 67.48L134.61 67.08L135.09 66.71L135.59 66.37L136.09 66.06L136.61 65.78L137.13 65.54L137.67 65.32L138.22 65.13L138.77 64.98L139.34 64.85L139.91 64.74L140.49 64.67L141.08 64.62L141.68 64.59L142.29 64.6L142.9 64.62L143.52 64.67L144.15 64.74L144.78 64.84L145.42 64.96L146.07 65.1L146.72 65.26L147.38 65.44L148.04 65.64L148.7 65.86L149.37 66.1L150.05 66.36L150.72 66.64L151.41 66.93L152.09 67.24L152.78 67.56L153.47 67.9L154.16 68.25L154.85 68.62L155.55 69.01L156.24 69.4L156.94 69.81L157.64 70.23L158.34 70.66L203.37 96.73L204.25 96.24L213.01 91.91L221.96 87.92L231.09 84.27L240.39 80.97L244.6 79.66L258 29.38L258.19 28.58L258.39 27.79L258.59 27.01L258.81 26.23L259.03 25.47L259.26 24.72L259.5 23.98L259.74 23.25L260 22.54L260.27 21.84L260.54 21.15L260.82 20.47L261.12 19.82L261.42 19.17L261.74 18.55L262.06 17.94L262.4 17.34L262.75 16.77L263.1 16.21L263.47 15.68L263.85 15.16L264.24 14.67L264.65 14.19L265.06 13.74L265.49 13.31L265.93 12.9L266.38 12.52L266.85 12.16L267.33 11.83L267.82 11.52L268.32 11.24L268.84 10.99L269.37 10.76L269.92 10.56L270.48 10.39L271.05 10.25L271.64 10.14L272.25 10.06L272.87 10.02L273.5 10L366.5 10L367.13 10.02L367.75 10.06ZM308.88 184.82L303.41 185.38L298 186.15L292.67 187.13L287.41 188.32L282.23 189.7L277.13 191.29L272.12 193.07L267.21 195.03L262.39 197.18L257.67 199.51L253.06 202.02L248.56 204.69L244.17 207.54L239.9 210.54L235.76 213.71L231.74 217.02L227.85 220.49L224.1 224.1L220.49 227.85L217.02 231.74L213.71 235.76L210.54 239.9L207.54 244.17L204.69 248.56L202.02 253.06L199.51 257.67L197.18 262.39L195.03 267.21L193.07 272.12L191.29 277.13L189.7 282.23L188.32 287.41L187.13 292.67L186.15 298L185.38 303.41L184.82 308.88L184.49 314.41L184.37 320L184.49 325.59L184.82 331.12L185.38 336.59L186.15 342L187.13 347.33L188.32 352.59L189.7 357.77L191.29 362.87L193.07 367.88L195.03 372.79L197.18 377.61L199.51 382.33L202.02 386.94L204.69 391.44L207.54 395.83L210.54 400.1L213.71 404.24L217.02 408.26L220.49 412.15L224.1 415.9L227.85 419.51L231.74 422.98L235.76 426.29L239.9 429.46L244.17 432.46L248.56 435.31L253.06 437.98L257.67 440.49L262.39 442.82L267.21 444.97L272.12 446.93L277.13 448.71L282.23 450.3L287.41 451.68L292.67 452.87L298 453.85L303.41 454.62L308.88 455.18L314.41 455.51L320 455.62L325.59 455.51L331.12 455.18L336.59 454.62L342 453.85L347.33 452.87L352.59 451.68L357.77 450.3L362.87 448.71L367.88 446.93L372.79 444.97L377.61 442.82L382.33 440.49L386.94 437.98L391.44 435.31L395.83 432.46L400.1 429.46L404.24 426.29L408.26 422.98L412.15 419.51L415.9 415.9L419.51 412.15L422.98 408.26L426.29 404.24L429.46 400.1L432.46 395.83L435.31 391.44L437.98 386.94L440.49 382.33L442.82 377.61L444.97 372.79L446.93 367.88L448.71 362.87L450.3 357.77L451.68 352.59L452.87 347.33L453.85 342L454.62 336.59L455.18 331.12L455.51 325.59L455.62 320L455.51 314.41L455.18 308.88L454.62 303.41L453.85 298L452.87 292.67L451.68 287.41L450.3 282.23L448.71 277.13L446.93 272.12L444.97 267.21L442.82 262.39L440.49 257.67L437.98 253.06L435.31 248.56L432.46 244.17L429.46 239.9L426.29 235.76L422.98 231.74L419.51 227.85L415.9 224.1L412.15 220.49L408.26 217.02L404.24 213.71L400.1 210.54L395.83 207.54L391.44 204.69L386.94 202.02L382.33 199.51L377.61 197.18L372.79 195.03L367.88 193.07L362.87 191.29L357.77 189.7L352.59 188.32L347.33 187.13L342 186.15L336.59 185.38L331.12 184.82L325.59 184.49L320 184.38L314.41 184.49L308.88 184.82Z" id="a5MIiDj7Z"></path></defs><g><g><g><use xlink:href="#a5MIiDj7Z" opacity="1" fill="#d42d2d" fill-opacity="1"></use></g></g></g></svg>