<?xml version="1.0" encoding="UTF-8" standalone="no"?>
<!DOCTYPE svg PUBLIC "-//W3C//DTD SVG 1.1//EN" "http://www.w3.org/Graphics/SVG/1.1/DTD/svg11.dtd">
<svg version="1.1" xmlns="http://www.w3.org/2000/svg" xmlns:xlink="http://www.w3.org/1999/xlink" preserveAspectRatio="xMidYMid meet" viewBox="0 0 640 640" width="640" height="640"><defs><path d="M355.77 68.13L81.54 68.13L81.54 571.88L558.46 571.88L558.46 203.75L630 203.75L630 630L10 630L10 10L355.77 10L355.77 68.13ZM403.46 170.05L403.46 10L630 170.05L403.46 170.05Z" id="eEvPKuCZX"></path><path d="M120.62 430L162.17 430L162.17 470L120.62 470L120.62 430Z" id="i2bGYCftIQ"></path><path d="M120 270L161.55 270L161.55 310L120 310L120 270Z" id="aYQQk0bet"></path><path d="M190 250L509.38 250L509.38 330L190 330L190 250Z" id="a6MtZhSK5"></path><path d="M190.62 410L510 410L510 490L190.62 490L190.62 410Z" id="a1fiaVuLIj"></path></defs><g><g><g><use xlink:href="#eEvPKuCZX" opacity="1" fill="#085796" fill-opacity="1"></use></g><g><use xlink:href="#i2bGYCftIQ" opacity="1" fill="#085796" fill-opacity="1"></use></g><g><use xlink:href="#aYQQk0bet" opacity="1" fill="#085796" fill-opacity="1"></use></g><g><use xlink:href="#a6MtZhSK5" opacity="1" fill="#085796" fill-opacity="1"></use></g><g><use xlink:href="#a1fiaVuLIj" opacity="1" fill="#085796" fill-opacity="1"></use></g></g></g></svg>