<?xml version="1.0" encoding="UTF-8" standalone="no"?>
<!DOCTYPE svg PUBLIC "-//W3C//DTD SVG 1.1//EN" "http://www.w3.org/Graphics/SVG/1.1/DTD/svg11.dtd">
<svg version="1.1" xmlns="http://www.w3.org/2000/svg" xmlns:xlink="http://www.w3.org/1999/xlink" preserveAspectRatio="xMidYMid meet" viewBox="0 0 640 640" width="64" height="64"><defs><path d="M200 100C200 155.19 155.19 200 100 200C44.81 200 0 155.19 0 100C0 44.81 44.81 0 100 0C155.19 0 200 44.81 200 100Z" id="c3kIoPyAq7"></path><path d="M267.33 540C267.33 595.19 222.52 640 167.33 640C112.14 640 67.33 595.19 67.33 540C67.33 484.81 112.14 440 167.33 440C222.52 440 267.33 484.81 267.33 540Z" id="l1JTSRRxRw"></path><path d="M582.38 540C582.38 595.19 537.57 640 482.38 640C427.18 640 382.38 595.19 382.38 540C382.38 484.81 427.18 440 482.38 440C537.57 440 582.38 484.81 582.38 540Z" id="bCfBKdatr"></path><path d="M640 100C640 155.19 595.19 200 540 200C484.81 200 440 155.19 440 100C440 44.81 484.81 0 540 0C595.19 0 640 44.81 640 100Z" id="c2ho3yf1Al"></path><path d="M426.29 294.95C426.29 350.14 381.48 394.95 326.29 394.95C271.1 394.95 226.29 350.14 226.29 294.95C226.29 239.76 271.1 194.95 326.29 194.95C381.48 194.95 426.29 239.76 426.29 294.95Z" id="bdXUzhroB"></path><path d="M543.76 100L482.38 540L323.96 299.01L167.33 540L92.28 100" id="a1eFUvj7yq"></path></defs><g><g><g><use xlink:href="#c3kIoPyAq7" opacity="1" fill="#0b74a4" fill-opacity="1"></use></g><g><use xlink:href="#l1JTSRRxRw" opacity="1" fill="#0b74a4" fill-opacity="1"></use></g><g><use xlink:href="#bCfBKdatr" opacity="1" fill="#0b74a4" fill-opacity="1"></use></g><g><use xlink:href="#c2ho3yf1Al" opacity="1" fill="#0b74a4" fill-opacity="1"></use></g><g><use xlink:href="#bdXUzhroB" opacity="1" fill="#0b74a4" fill-opacity="1"></use></g><g><g><use xlink:href="#a1eFUvj7yq" opacity="1" fill-opacity="0" stroke="#0b74a4" stroke-width="10" stroke-opacity="1"></use></g></g></g></g></svg>